<?xml version="1.0" standalone="no"?>
<!DOCTYPE svg PUBLIC "-//W3C//DTD SVG 20010904//EN"
 "http://www.w3.org/TR/2001/REC-SVG-20010904/DTD/svg10.dtd">
<svg version="1.0" xmlns="http://www.w3.org/2000/svg"
 width="427.000000pt" height="481.000000pt" viewBox="0 0 427.000000 481.000000"
 preserveAspectRatio="xMidYMid meet">

<g transform="translate(0.000000,481.000000) scale(0.100000,-0.100000)"
fill="#000000" stroke="none">
<path d="M1978 4427 c-76 -45 -138 -85 -138 -89 0 -10 226 -338 234 -341 6 -2
218 444 214 449 -26 23 -116 64 -141 63 -21 0 -79 -28 -169 -82z"/>
<path d="M2311 4348 c-16 -34 -65 -141 -110 -236 -44 -95 -81 -177 -81 -182 0
-6 316 -472 545 -803 11 -16 41 34 239 397 124 228 226 418 226 423 0 7 -752
451 -780 461 -6 2 -23 -25 -39 -60z"/>
<path d="M1060 3891 l-715 -418 -3 -99 -2 -99 361 -440 c198 -242 400 -487
447 -543 l85 -104 51 109 c29 59 211 449 406 865 195 417 357 758 360 758 3 0
12 -12 21 -26 l16 -26 12 30 c11 26 10 34 -5 57 l-17 27 -15 -28 -14 -27 -19
24 c-10 13 -69 99 -131 191 -62 92 -115 167 -118 167 -3 0 -327 -188 -720
-418z"/>
<path d="M2960 3503 c-124 -228 -230 -423 -237 -432 -11 -14 -14 -14 -29 8
l-17 24 -14 -27 c-12 -23 -11 -29 3 -52 l17 -26 15 27 c12 23 16 25 26 14 7
-8 210 -302 451 -654 240 -352 443 -646 449 -653 10 -10 46 50 174 285 l162
297 -2 579 -3 579 -383 224 c-211 123 -384 224 -385 224 -1 -1 -103 -188 -227
-417z"/>
<path d="M1680 3000 c-222 -473 -406 -860 -409 -860 -3 0 -12 10 -20 22 l-13
22 -15 -27 c-7 -15 -15 -27 -18 -27 -2 0 -195 234 -430 520 -234 286 -428 520
-430 520 -3 0 -5 -408 -5 -907 l1 -908 190 -110 c105 -60 195 -110 200 -110 5
0 112 220 238 488 126 269 232 491 235 495 4 3 14 -5 23 -17 l16 -24 14 27 c8
15 17 25 21 22 4 -2 122 -144 262 -315 193 -235 258 -307 266 -298 16 18 834
1524 834 1536 0 10 -520 774 -544 799 -10 10 -94 -161 -416 -848z"/>
<path d="M2618 2873 c-36 -65 -224 -410 -418 -768 -195 -357 -355 -652 -358
-655 -2 -3 -12 5 -21 17 l-18 22 -19 -24 -19 -24 -255 314 c-140 172 -257 314
-260 314 -7 1 -462 -970 -458 -974 9 -9 591 -345 596 -345 4 0 90 153 191 340
101 187 187 340 191 340 4 0 13 -7 20 -15 17 -20 27 -19 35 6 4 11 11 19 15
17 5 -2 172 -201 370 -443 199 -242 367 -439 373 -437 7 2 147 82 313 179
l300 175 198 364 c109 200 202 367 206 369 5 3 15 -4 23 -15 15 -21 15 -21 33
4 l19 25 110 -164 c61 -90 115 -164 121 -165 7 0 21 8 33 18 21 17 21 19 19
424 l-3 407 -139 -255 c-77 -140 -143 -254 -148 -254 -4 0 -13 9 -20 20 -12
18 -13 18 -29 -6 l-16 -25 -35 48 c-19 26 -99 143 -178 258 -320 467 -693
1010 -700 1018 -4 5 -37 -45 -72 -110z"/>
<path d="M3468 1288 c-91 -167 -164 -305 -162 -307 2 -2 125 68 273 154 175
103 268 162 263 169 -45 72 -195 286 -201 286 -4 0 -82 -136 -173 -302z"/>
<path d="M1645 1088 c-88 -161 -169 -311 -182 -333 l-22 -40 339 -198 c244
-142 347 -197 370 -197 21 0 85 31 200 98 93 53 168 100 167 104 -4 13 -699
858 -706 858 -4 0 -78 -132 -166 -292z"/>
</g>
</svg>
